<?xml version="1.0" encoding="UTF-8"?>
<svg width="20px" height="20px" viewBox="0 0 20 20" version="1.1" xmlns="http://www.w3.org/2000/svg" xmlns:xlink="http://www.w3.org/1999/xlink">
    <!-- Generator: Sketch 42 (36781) - http://www.bohemiancoding.com/sketch -->
    <title>Group 4</title>
    <desc>Created with Sketch.</desc>
    <defs></defs>
    <g id="Sprite" stroke="none" stroke-width="1" fill="none" fill-rule="evenodd">
        <g id="sprite" transform="translate(-1300.000000, -100.000000)">
            <g id="Icons" transform="translate(9.000000, -22.000000)">
                <g id="Group-4" transform="translate(1291.000000, 122.000000)">
                    <path d="M10,20 C15.5228475,20 20,15.5228475 20,10 C20,4.4771525 15.5228475,0 10,0 C4.4771525,0 0,4.4771525 0,10 C0,15.5228475 4.4771525,20 10,20 Z" id="Oval-31" fill="#512B2B"></path>
                    <g id="Page-1" transform="translate(5.000000, 5.000000)" fill="#FBF2EA">
                        <path d="M8.65014419,8.74227527 L7.14467035,8.74227527 L7.14467035,6.36147452 C7.14467035,5.79349081 7.13508314,5.06306319 6.36246686,5.06306319 C5.57885349,5.06306319 5.45929535,5.68205999 5.45929535,6.32072105 L5.45929535,8.74227527 L3.95579535,8.74227527 L3.95579535,3.84615881 L5.39895233,3.84615881 L5.39895233,4.51559872 L5.41953663,4.51559872 C5.62030407,4.13057815 6.11150756,3.72475337 6.84408314,3.72475337 C8.36844942,3.72475337 8.65014419,4.73846036 8.65014419,6.05710593 L8.65014419,8.74227527 Z M2.25801337,3.17728889 C1.77442326,3.17728889 1.38444942,2.78200871 1.38444942,2.29467698 C1.38444942,1.80763024 1.77442326,1.41235005 2.25801337,1.41235005 C2.73962965,1.41235005 3.1307314,1.80763024 3.1307314,2.29467698 C3.1307314,2.78200871 2.73962965,3.17728889 2.25801337,3.17728889 L2.25801337,3.17728889 Z M3.01117326,8.74227527 L1.50400756,8.74227527 L1.50400756,3.84615881 L3.01117326,3.84615881 L3.01117326,8.74227527 Z M1.02783202,-5.69978632e-05 C0.615018068,-5.69978632e-05 -5.63953488e-05,0.570390246 -5.63953488e-05,0.979064926 L-5.63953488e-05,9.03350852 C-5.63953488e-05,9.44189821 0.615018068,10.0191042 1.02783202,10.0191042 L9.01495348,10.0191042 C9.42889535,10.0191042 9.99853503,9.44189821 9.99853503,9.03350852 L9.99853503,0.979064926 C9.99853503,0.570390246 9.42889535,-5.69978632e-05 9.01495348,-5.69978632e-05 L1.02783202,-5.69978632e-05 Z" id="Fill-5"></path>
                    </g>
                </g>
            </g>
        </g>
    </g>
</svg>