<?xml version="1.0" encoding="UTF-8"?>
<svg width="20px" height="20px" viewBox="0 0 20 20" version="1.1" xmlns="http://www.w3.org/2000/svg" xmlns:xlink="http://www.w3.org/1999/xlink">
    <!-- Generator: Sketch 42 (36781) - http://www.bohemiancoding.com/sketch -->
    <title>skype</title>
    <desc>Created with Sketch.</desc>
    <defs></defs>
    <g id="Sprite" stroke="none" stroke-width="1" fill="none" fill-rule="evenodd">
        <g id="sprite" transform="translate(-1330.000000, -100.000000)" fill="#512B2B">
            <g id="Icons" transform="translate(9.000000, -22.000000)">
                <path d="M1340.28414,133.492923 C1340.36114,133.006923 1340.40314,132.507923 1340.40314,131.999923 C1340.40314,126.806923 1336.19314,122.596923 1331.00014,122.596923 C1330.49214,122.596923 1329.99414,122.637923 1329.50614,122.715923 C1327.32814,121.507923 1324.52714,121.827923 1322.67814,123.678923 C1320.82814,125.526923 1320.50814,128.326923 1321.71614,130.506923 C1321.63914,130.992923 1321.59714,131.491923 1321.59714,131.999923 C1321.59714,137.192923 1325.80714,141.402923 1331.00014,141.402923 C1331.50814,141.402923 1332.00614,141.361923 1332.49414,141.283923 C1334.67414,142.491923 1337.47314,142.171923 1339.32214,140.320923 C1341.17214,138.471923 1341.49214,135.672923 1340.28414,133.492923 L1340.28414,133.492923 Z M1336.40414,135.514923 C1335.78014,137.565923 1333.45714,138.527923 1331.21914,138.527923 C1328.08014,138.527923 1325.46414,137.124923 1325.46414,135.412923 C1325.46414,134.650923 1325.89314,133.960923 1326.86714,133.960923 C1328.36614,133.960923 1328.51014,136.103923 1331.07414,136.103923 C1332.31314,136.103923 1333.09814,135.554923 1333.09814,134.840923 C1333.09814,133.960923 1332.33814,133.817923 1331.10214,133.509923 L1329.05614,133.010923 C1327.03314,132.512923 1325.46414,131.679923 1325.46414,129.348923 C1325.46414,126.518923 1328.27114,125.471923 1330.67314,125.471923 C1333.31314,125.471923 1335.97714,126.518923 1335.97714,128.111923 C1335.97714,128.919923 1335.42914,129.634923 1334.52314,129.634923 C1333.17014,129.634923 1333.12214,128.040923 1330.93414,128.040923 C1329.72114,128.040923 1328.93614,128.372923 1328.93614,129.109923 C1328.93614,129.918923 1329.72114,130.108923 1330.79114,130.347923 L1332.24014,130.679923 C1333.90814,131.061923 1335.83914,131.718923 1336.40414,133.370923 C1336.40414,133.370923 1336.53514,133.692923 1336.53514,134.366923 C1336.53514,135.086923 1336.40414,135.514923 1336.40414,135.514923 L1336.40414,135.514923 Z" id="skype"></path>
            </g>
        </g>
    </g>
</svg>