<?xml version="1.0" encoding="UTF-8"?>
<svg width="20px" height="20px" viewBox="0 0 20 20" version="1.1" xmlns="http://www.w3.org/2000/svg" xmlns:xlink="http://www.w3.org/1999/xlink">
    <!-- Generator: Sketch 42 (36781) - http://www.bohemiancoding.com/sketch -->
    <title>Twitter</title>
    <desc>Created with Sketch.</desc>
    <defs></defs>
    <g id="Sprite" stroke="none" stroke-width="1" fill="none" fill-rule="evenodd">
        <g id="sprite" transform="translate(-1330.000000, -10.000000)" fill="#512B2B">
            <g id="Icons" transform="translate(9.000000, -22.000000)">
                <g id="Twitter" transform="translate(1321.000000, 32.000000)">
                    <path d="M10,0 C4.478,0 0,4.477 0,10 C0,15.523 4.478,20 10,20 C15.522,20 20,15.523 20,10 C20,4.477 15.522,0 10,0 L10,0 Z M14.975,7.755 L14.982,8.073 C14.982,11.329 12.506,15.079 7.978,15.079 C6.588,15.079 5.293,14.671 4.203,13.973 C4.396,13.995 4.592,14.008 4.791,14.008 C5.945,14.008 7.006,13.614 7.849,12.954 C6.771,12.934 5.863,12.222 5.549,11.243 C5.699,11.272 5.853,11.286 6.012,11.286 C6.238,11.286 6.455,11.258 6.661,11.201 C5.535,10.974 4.686,9.979 4.686,8.788 L4.686,8.757 C5.02,8.941 5.397,9.052 5.801,9.065 C5.141,8.624 4.706,7.87 4.706,7.017 C4.706,6.565 4.828,6.143 5.039,5.778 C6.252,7.269 8.067,8.249 10.113,8.352 C10.071,8.171 10.051,7.982 10.051,7.79 C10.051,6.431 11.152,5.329 12.512,5.329 C13.221,5.329 13.859,5.628 14.311,6.106 C14.87,5.995 15.397,5.79 15.873,5.509 C15.689,6.084 15.301,6.566 14.791,6.871 C15.287,6.813 15.764,6.679 16.205,6.483 C15.875,6.977 15.456,7.41 14.975,7.755 L14.975,7.755 Z"></path>
                </g>
            </g>
        </g>
    </g>
</svg>