<?xml version="1.0" encoding="UTF-8"?>
<svg width="20px" height="20px" viewBox="0 0 20 20" version="1.1" xmlns="http://www.w3.org/2000/svg" xmlns:xlink="http://www.w3.org/1999/xlink">
    <!-- Generator: Sketch 42 (36781) - http://www.bohemiancoding.com/sketch -->
    <title>Contract</title>
    <desc>Created with Sketch.</desc>
    <defs></defs>
    <g id="Sprite" stroke="none" stroke-width="1" fill="none" fill-rule="evenodd">
        <g id="sprite" transform="translate(-400.000000, -10.000000)">
            <g id="Icons" transform="translate(9.000000, -22.000000)">
                <g id="Contract" transform="translate(391.000000, 32.000000)">
                    <path d="M10,20 C4.477,20 0,15.523 0,10 C0,4.478 4.477,0 10,0 C15.523,0 20,4.478 20,10 C20,15.523 15.523,20 10,20 Z" id="Fill-1" fill="#31A3AE"></path>
                    <path d="M5,4.00684547 C5,3.45078007 5.4556644,3 5.99539757,3 L10.990237,3 C13.204768,3 15,4.78732987 15,6.99310226 L15,15.9931545 C15,16.5492199 14.5443356,17 14.0046024,17 L5.99539757,17 C5.44565467,17 5,16.5500512 5,15.9931545 L5,4.00684547 Z M8,9 L14,9 L14,10 L8,10 L8,9 Z M8,11 L14,11 L14,12 L8,12 L8,11 Z M8,13 L14,13 L14,14 L8,14 L8,13 Z M6,9 L7,9 L7,10 L6,10 L6,9 Z M6,11 L7,11 L7,12 L6,12 L6,11 Z M6,13 L7,13 L7,14 L6,14 L6,13 Z M11,6 L15,6 L15,7 L11,7 L11,6 Z M10.9884644,5.98779297 L10.9884644,3 L11.9884644,3 L11.9884644,5.98779297 L10.9884644,5.98779297 Z" id="contracts" fill="#FFFFFF"></path>
                </g>
            </g>
        </g>
    </g>
</svg>