<?xml version="1.0" encoding="UTF-8"?>
<svg width="20px" height="19px" viewBox="0 0 20 19" version="1.1" xmlns="http://www.w3.org/2000/svg" xmlns:xlink="http://www.w3.org/1999/xlink">
    <!-- Generator: Sketch 42 (36781) - http://www.bohemiancoding.com/sketch -->
    <title>everyday_banking</title>
    <desc>Created with Sketch.</desc>
    <defs></defs>
    <g id="Sprite" stroke="none" stroke-width="1" fill="none" fill-rule="evenodd">
        <g id="sprite" transform="translate(-370.000000, -190.000000)" fill="#512B2B">
            <g id="Menu-items" transform="translate(340.000000, 189.000000)">
                <g id="everyday_banking" transform="translate(30.000000, 1.000000)">
                    <path d="M15,16 L20,16 C20,17.654 18.655,19 17,19 L7.5,19 C6.672,19 6,18.328 6,17.5 L6,8.5 C6,7.672 6.672,7 7.5,7 L17,7 C18.655,7 20,8.346 20,10 L15,10 C13.346,10 12,11.346 12,13 C12,14.654 13.346,16 15,16 L15,16 Z M15,11 L20,11 L20,15 L15,15 C13.896,15 13,14.104 13,13 C13,11.895 13.896,11 15,11 L15,11 Z M15,13 C15,13.553 15.448,14 16,14 C16.552,14 17,13.553 17,13 C17,12.447 16.552,12 16,12 C15.448,12 15,12.447 15,13 L15,13 Z M2,10 L5,10 L5,12 L2,12 C0.896,12 0,11.104 0,10 L0,2 C0,0.896 0.896,0 2,0 L14,0 C15.105,0 16,0.896 16,2 L16,6 L2,6 L2,10 L2,10 Z M2,3 L14,3 L14,2 L2,2 L2,3 Z"></path>
                </g>
            </g>
        </g>
    </g>
</svg>